<svg width="1306" height="662" viewBox="0 0 1306 662" fill="none" xmlns="http://www.w3.org/2000/svg">
<path d="M643.095 561.008C643.095 593.143 643.095 624.778 643.095 657.01C634.836 657.01 626.91 657.01 618.983 657.01C615.984 657.01 612.889 656.525 610.002 657.095C597.985 659.468 590.826 653.62 583.597 644.598C557.677 612.251 530.924 580.572 504.481 548.645C503.789 547.81 503.038 547.025 501.772 545.61C501.772 583.103 501.772 619.685 501.772 656.638C482.312 656.638 463.112 656.638 443.664 656.638C443.664 586.925 443.664 517.208 443.664 447.005C456.877 447.005 470.009 447.404 483.1 446.839C489.735 446.552 493.863 448.614 498.087 453.797C525.744 487.742 553.801 521.362 581.73 555.085C582.452 555.956 583.212 556.797 584.641 558.444C584.641 520.923 584.641 484.279 584.641 447.322C604.297 447.322 623.376 447.322 643.095 447.322C643.095 484.989 643.095 522.749 643.095 561.008Z" fill="#FEFEFE"/>
<path d="M511.082 320.007C511.082 269.888 511.082 220.269 511.082 170.273C512.626 170.171 513.885 170.016 515.144 170.015C546.627 170.002 578.112 169.866 609.594 170.054C630.721 170.18 651.061 174.021 668.915 186.088C693.025 202.385 702.079 225.998 700.157 254.219C698.322 281.161 685.028 300.815 660.928 313.103C660.513 313.314 660.191 313.708 659.522 314.274C674.375 335.939 689.189 357.548 704.383 379.711C702.478 379.834 701.101 379.998 699.724 380C681.567 380.017 663.409 379.908 645.254 380.106C641.977 380.141 640.225 379.021 638.478 376.423C627.526 360.137 616.337 344.01 605.413 327.707C603.613 325.021 601.751 324.02 598.541 324.1C589.415 324.328 580.28 324.18 570.77 324.18C570.77 342.76 570.77 361.008 570.77 379.633C550.836 379.633 531.278 379.633 511.082 379.633C511.082 360.028 511.082 340.268 511.082 320.007ZM570.52 253.508C570.52 261.614 570.52 269.719 570.52 277.9C584.632 277.9 598.29 278.625 611.839 277.719C629.438 276.543 639.834 265.46 640.427 249.076C641.048 231.889 632.059 220.284 614.255 217.916C602.461 216.347 590.356 217.11 578.389 216.853C575.812 216.798 573.233 216.845 570.52 216.845C570.52 229.223 570.52 240.866 570.52 253.508Z" fill="#FDFEFE"/>
<path d="M251.625 447.006C303.412 447.006 354.706 447.006 406.26 447.006C406.26 462.287 406.26 477.221 406.26 492.654C371.312 492.654 336.257 492.654 300.898 492.654C300.898 504.696 300.898 516.244 300.898 528.222C331.792 528.222 362.534 528.222 393.516 528.222C393.516 543.222 393.516 557.793 393.516 572.792C362.54 572.792 331.797 572.792 300.825 572.792C300.825 585.643 300.825 598.067 300.825 610.881C337.108 610.881 373.361 610.881 410.019 610.881C410.019 626.302 410.019 641.345 410.019 656.701C354.196 656.701 298.28 656.701 242.012 656.701C242.012 587.126 242.012 517.403 242.012 447.006C244.939 447.006 248.035 447.006 251.625 447.006Z" fill="#FEFEFE"/>
<path d="M845.521 508.011C845.521 514.83 845.521 521.148 845.521 528.063C876.564 528.063 907.427 528.063 938.513 528.063C938.513 543.232 938.513 557.803 938.513 572.786C907.523 572.786 876.775 572.786 845.776 572.786C845.776 585.616 845.776 598.038 845.776 611.002C882.134 611.002 918.514 611.002 955.158 611.002C955.158 626.463 955.158 641.388 955.158 656.662C899.151 656.662 843.122 656.662 786.875 656.662C786.875 586.964 786.875 517.362 786.875 447.383C841.494 447.383 896.194 447.383 951.161 447.383C951.161 462.31 951.161 477.24 951.161 492.695C916.188 492.695 881.141 492.695 845.521 492.695C845.521 497.97 845.521 502.741 845.521 508.011Z" fill="#FEFEFE"/>
<path d="M151.587 565.009C151.587 559.021 151.587 553.533 151.587 547.773C169.083 547.773 186.321 547.773 203.866 547.773C203.951 549.451 204.088 550.905 204.089 552.36C204.102 578.353 204.152 604.347 203.991 630.339C203.979 632.307 203.004 635.2 201.527 636.093C156.692 663.181 109.535 670.732 60.5766 649.218C21.0968 631.87 -1.35059 591.119 0.062986 547.964C1.7045 497.849 37.1313 450.969 99.5551 443.915C126.723 440.845 153.061 443.753 177.782 456.234C189.775 462.29 200.148 470.489 208.862 481.264C196.269 492.653 183.834 503.899 171.139 515.38C163.288 507.062 154.469 500.375 143.908 496.314C120.212 487.201 83.2351 490.698 67.0652 521.473C54.3893 545.598 56.5264 590.161 92.4928 606.48C111.223 614.979 130.411 613.596 149.224 606.036C150.426 605.553 151.461 603.068 151.485 601.497C151.672 589.503 151.587 577.505 151.587 565.009Z" fill="#FDFDFE"/>
<path d="M151.481 303.896C137.038 309.201 122.432 311.097 107.514 311.085C95.3746 311.075 83.2354 311.083 70.5717 311.083C70.5717 329.382 70.5717 347.426 70.5717 365.737C50.4896 365.737 30.9328 365.737 11.1289 365.737C11.1289 295.864 11.1289 226.152 11.1289 156.205C12.6553 156.131 13.9502 156.013 15.2451 156.012C46.7325 156.002 78.2205 155.887 109.707 156.048C129.105 156.148 147.924 159.487 164.797 169.574C191.372 185.46 202.074 209.786 200.019 239.973C197.871 271.527 180.51 292.023 151.481 303.896ZM86.0903 202.845C80.9859 202.845 75.8816 202.845 70.7466 202.845C70.7466 223.556 70.7466 243.744 70.7466 263.982C84.1925 263.982 97.3394 264.481 110.433 263.861C128.612 263 139.549 251.975 140.367 234.845C141.175 217.943 131.526 206.215 113.488 203.67C104.822 202.448 95.8969 203.062 86.0903 202.845Z" fill="#FDFEFE"/>
<path d="M1073.76 380.009C1068.9 380.772 1066.6 379.214 1065.02 374.707C1061.24 363.933 1056.78 353.391 1052.37 342.848C1051.75 341.359 1049.89 339.343 1048.59 339.334C1019.77 339.133 990.949 339.18 961.933 339.18C956.427 352.866 950.985 366.393 945.549 379.905C925.467 379.905 905.651 379.905 885.109 379.905C887.444 374.455 889.587 369.321 891.834 364.233C919.793 300.9 947.798 237.588 975.652 174.209C977.089 170.938 978.735 169.878 982.248 169.919C998.912 170.113 1015.58 170.071 1032.24 169.944C1035.11 169.922 1036.52 170.723 1037.73 173.484C1067.7 241.385 1097.79 309.232 1127.85 377.09C1128.17 377.819 1128.42 378.579 1128.96 380.009C1110.37 380.009 1092.3 380.009 1073.76 380.009ZM981.94 289.107C981.289 291.034 980.637 292.962 979.968 294.945C997.877 294.945 1015.23 294.945 1033.2 294.945C1024.27 272.733 1015.56 251.056 1006.41 228.301C998.005 249.272 990.166 268.828 981.94 289.107Z" fill="#FEFEFE"/>
<path d="M834.426 223.096C834.426 275.54 834.426 327.496 834.426 379.73C814.497 379.73 794.937 379.73 775.015 379.73C775.015 325.638 775.015 271.699 775.015 217.237C753.441 217.237 732.218 217.237 710.758 217.237C710.758 201.311 710.758 185.906 710.758 170.252C773.255 170.252 835.659 170.252 898.327 170.252C898.327 185.708 898.327 201.114 898.327 216.939C877.234 216.939 856.16 216.939 834.426 216.939C834.426 219.098 834.426 220.853 834.426 223.096Z" fill="#FEFEFE"/>
<path d="M1154.66 170.004C1171.76 170.004 1188.37 170.004 1205.31 170.004C1205.31 224.405 1205.31 278.333 1205.31 332.648C1238.72 332.648 1271.8 332.648 1305.24 332.648C1305.24 348.438 1305.24 363.851 1305.24 379.637C1252.49 379.637 1199.46 379.637 1146.16 379.637C1146.16 309.936 1146.16 240.22 1146.16 170.004C1148.93 170.004 1151.55 170.004 1154.66 170.004Z" fill="#FDFDFE"/>
<path d="M685.078 495.007C685.078 478.866 685.078 463.226 685.078 447.295C704.978 447.295 724.524 447.295 744.298 447.295C744.298 517.031 744.298 586.634 744.298 656.624C724.852 656.624 705.289 656.624 685.078 656.624C685.078 603.027 685.078 549.267 685.078 495.007Z" fill="#FDFDFD"/>
<path d="M357.585 30.9829C357.585 20.5161 357.585 10.5452 357.585 0.28894C367.55 0.28894 377.263 0.28894 387.205 0.28894C387.205 35.0569 387.205 69.6483 387.205 104.627C377.556 104.627 367.847 104.627 357.709 104.627C357.709 91.3406 357.709 77.9378 357.709 64.2773C344.051 64.2773 330.816 64.2773 317.113 64.2773C317.113 77.7932 317.113 91.201 317.113 104.806C307.064 104.806 297.48 104.806 287.656 104.806C287.656 69.9153 287.656 35.1971 287.656 0.240234C297.374 0.240234 306.971 0.240234 316.947 0.240234C316.947 13.0598 316.947 25.8423 316.947 39.058C330.536 39.058 343.765 39.058 357.585 39.058C357.585 36.7017 357.585 34.0902 357.585 30.9829Z" fill="#FCFCFD"/>
<path d="M470.59 105.008C449.637 105.008 429.183 105.008 408.512 105.008C408.512 69.8787 408.512 35.1624 408.512 0.226562C435.79 0.226562 462.884 0.226562 490.285 0.226562C490.285 7.61365 490.285 15.0147 490.285 22.8403C472.962 22.8403 455.562 22.8403 437.878 22.8403C437.878 28.8425 437.878 34.4308 437.878 40.6222C453.171 40.6222 468.554 40.6222 484.175 40.6222C484.175 48.2917 484.175 55.3641 484.175 62.7905C468.724 62.7905 453.465 62.7905 437.899 62.7905C437.899 69.2094 437.899 75.2887 437.899 81.7922C455.839 81.7922 473.906 81.7922 492.28 81.7922C492.28 89.6038 492.28 97.0049 492.28 105.008C485.283 105.008 478.186 105.008 470.59 105.008Z" fill="white"/>
<path d="M246.59 0C256.708 0 266.325 0 276.185 0C276.185 7.84741 276.185 15.2791 276.185 23.2214C265.837 23.2214 255.435 23.2214 244.516 23.2214C244.516 50.595 244.516 77.4692 244.516 104.677C234.305 104.677 224.611 104.677 214.456 104.677C214.456 77.6956 214.456 50.8098 214.456 23.4893C203.592 23.4893 193.174 23.4893 182.523 23.4893C182.523 15.4612 182.523 7.8725 182.523 0C203.829 0 224.959 0 246.59 0Z" fill="#FCFCFC"/>
<path d="M281.759 334.936C297.418 345.335 312.884 342.273 327.603 333.32C336.332 328.009 344.127 321.165 353.016 315.059C356.902 317.729 359.875 317.231 363.195 314.965C367.274 312.182 371.679 309.875 375.958 307.389C379.044 305.596 382.091 303.718 385.276 302.117C388.041 300.726 391.097 299.894 393.81 298.42C400.484 294.793 406.852 290.559 413.686 287.286C420.187 284.173 427.228 282.21 433.837 279.298C440.314 276.443 446.622 273.172 452.861 269.816C457.771 267.175 462.204 267.219 466.439 270.992C465.671 281.799 464.904 292.606 463.686 303.544C461.896 303.104 460.221 301.711 459.272 302.098C452.864 304.713 446.643 307.778 440.293 310.542C437.332 311.83 434.098 312.519 431.203 313.923C425.888 316.501 420.791 319.527 415.494 322.145C409.679 325.018 403.637 327.443 397.903 330.461C395.226 331.87 393.312 334.848 390.583 336.013C383.582 339.001 376.296 341.312 369.17 344.014C365.756 345.309 362.103 346.383 359.155 348.42C352.281 353.172 344.813 355.962 336.768 358.155C323.933 361.654 311.525 366.721 298.692 370.232C289.003 372.882 278.939 374.18 269.025 375.982C266.458 376.448 263.198 375.854 264.351 380.258C251.953 374.984 242.957 365.646 234.723 355.413C233.588 354.003 232.659 352.427 231.552 350.264C231.086 349.099 230.701 348.599 230.316 348.099C230.316 348.099 230.395 348.154 230.499 347.836C231.547 347.209 232.795 346.351 233.386 346.678C237.714 349.079 242.169 349.59 246.813 348.012C250.391 346.796 253.833 344.516 257.456 344.228C266.582 343.504 274.162 339.332 281.759 334.936Z" fill="#1995E2"/>
<path d="M264.383 380.227C263.2 375.854 266.46 376.448 269.027 375.981C278.942 374.18 289.005 372.882 298.694 370.231C311.527 366.721 323.935 361.653 336.771 358.155C344.815 355.962 352.283 353.172 359.157 348.42C362.105 346.382 365.758 345.308 369.172 344.013C376.298 341.311 383.585 339 390.585 336.013C393.315 334.848 395.228 331.87 397.905 330.461C403.639 327.443 409.681 325.018 415.496 322.144C420.793 319.527 425.89 316.501 431.206 313.923C434.101 312.519 437.335 311.83 440.295 310.541C446.645 307.778 452.867 304.713 459.274 302.098C460.223 301.711 461.898 303.104 463.508 303.898C458.919 330.954 448.084 355.182 431.752 376.945C430.673 378.384 427.444 379.996 426.576 379.432C424.779 378.265 423.13 375.816 422.768 373.666C420.817 362.083 416.221 351.755 408.909 341.983C407.806 343.15 406.813 344.14 405.886 345.19C384.66 369.23 359.276 386.307 327.028 391.38C306.632 394.588 286.916 391.87 267.792 382.279C266.738 381.525 266.11 381.299 265.482 381.074C265.482 381.074 265.557 381.061 265.427 380.864C264.999 380.483 264.7 380.298 264.401 380.112C264.401 380.112 264.412 380.197 264.383 380.227Z" fill="#1B88D7"/>
<path d="M217.73 255.982C223.2 230.069 235.789 208.067 255.245 190.298C285.598 162.575 321.61 152.822 362.024 158.381C367.075 159.076 372.042 160.383 377.135 161.883C375.373 162.683 373.1 162.426 371.743 163.421C362.368 170.294 352.071 174.931 340.737 177.487C325.654 180.889 313.588 190.463 300.539 197.892C291.435 203.075 282.894 209.37 274.601 215.811C269.048 220.123 264.059 225.285 259.377 230.564C252.86 237.913 247.059 245.862 237.647 250.03C232.014 252.524 226.395 252.98 220.421 251.855C219.633 253.063 218.682 254.522 217.73 255.982Z" fill="#16BEF9"/>
<path d="M466.498 270.541C462.207 267.219 457.774 267.175 452.864 269.816C446.626 273.172 440.318 276.443 433.84 279.298C427.232 282.21 420.19 284.173 413.69 287.286C406.855 290.559 400.487 294.794 393.814 298.42C391.101 299.895 388.045 300.726 385.279 302.117C382.095 303.719 379.047 305.596 375.961 307.389C371.682 309.875 367.277 312.182 363.199 314.965C359.878 317.231 356.906 317.73 353.312 314.938C356.746 310.459 360.561 306.149 363.686 302.619C357.475 295.886 351.774 289.628 345.978 283.459C343.589 280.916 340.572 278.857 338.62 276.039C336.681 273.241 334.28 269.579 334.661 266.629C335.259 262.007 340.35 262.37 344.056 261.968C352.646 261.038 361.259 260.326 369.86 259.501C394.827 257.106 419.787 254.644 444.763 252.346C449.543 251.906 454.405 252.362 459.184 251.913C463.715 251.488 465.592 253.412 465.81 257.658C466.023 261.804 466.304 265.946 466.498 270.541Z" fill="#17A4EC"/>
<path d="M215.466 305.068C215.161 302.652 214.855 300.236 214.863 297.075C215.316 292.192 215.521 288.053 215.578 283.913C215.663 277.592 215.778 277.64 222.175 278.612C225.839 279.169 229.979 279.977 233.255 278.825C237.027 277.497 240.102 274.156 243.442 271.64C245.545 270.056 247.898 268.654 249.582 266.692C254.305 261.19 258.75 255.45 263.281 249.784C266.687 245.525 270.093 241.263 273.432 236.95C275.634 234.106 277.297 230.687 279.946 228.379C285.039 223.942 290.297 219.468 296.145 216.179C305.375 210.987 315.151 206.766 324.69 202.123C329.442 199.809 333.975 196.784 338.969 195.287C348.788 192.344 359.243 192.353 368.788 187.435C375.992 183.724 384.445 182.518 392.064 179.496C395.632 178.08 401.028 178.359 401.238 172.654C403.361 173.092 405.087 173.449 406.813 173.805C406.813 173.805 406.725 173.859 406.813 174.069C407.183 174.507 407.465 174.735 407.747 174.964C416.076 181.053 424.404 187.142 432.51 193.604C430.58 194.585 428.906 195.584 427.16 195.731C420.323 196.306 413.422 196.283 406.627 197.14C402.523 197.658 398.125 198.647 394.657 200.745C389.424 203.911 384.389 206.031 378.246 204.439C375.374 203.695 368.188 207.212 366.595 209.998C363.475 209.318 360.355 208.637 356.681 207.668C355.766 207.341 355.405 207.3 355.044 207.26C354.713 207.259 354.382 207.259 353.506 206.883C346.51 206.663 340.058 206.819 333.607 206.976C326.325 208.672 318.701 209.526 311.853 212.296C304.605 215.228 297.441 219.179 291.387 224.097C275.094 237.33 266.177 255.064 263.174 275.689C262.344 281.391 262.744 287.273 262.152 293.539C259.64 294.878 257.114 295.267 255.547 296.703C248.864 302.831 241.574 307.877 232.688 309.998C230.187 310.595 227.19 310.203 224.685 309.419C221.473 308.415 218.527 306.557 215.466 305.068Z" fill="#16AEF2"/>
<path d="M406.609 173.528C405.088 173.448 403.361 173.092 401.238 172.654C401.028 178.359 395.632 178.08 392.064 179.496C384.445 182.518 375.992 183.724 368.788 187.435C359.243 192.353 348.788 192.344 338.969 195.287C333.975 196.784 329.442 199.809 324.69 202.123C315.151 206.766 305.375 210.987 296.145 216.179C290.297 219.468 285.039 223.942 279.946 228.379C277.297 230.687 275.634 234.106 273.432 236.95C270.093 241.263 266.687 245.525 263.281 249.784C258.75 255.45 254.305 261.19 249.582 266.692C247.898 268.654 245.545 270.056 243.442 271.64C240.102 274.156 237.027 277.497 233.255 278.825C229.979 279.977 225.839 279.169 222.175 278.612C215.778 277.64 215.663 277.592 215.578 283.913C215.521 288.053 215.316 292.191 214.926 296.655C212.382 284.176 213.87 271.654 217.437 259.275C217.661 258.501 217.525 257.623 217.643 256.387C218.682 254.522 219.633 253.063 220.421 251.855C226.395 252.98 232.014 252.524 237.647 250.03C247.059 245.862 252.86 237.913 259.377 230.564C264.059 225.285 269.048 220.123 274.601 215.811C282.894 209.37 291.435 203.075 300.539 197.892C313.588 190.463 325.654 180.889 340.737 177.487C352.071 174.931 362.368 170.294 371.743 163.421C373.1 162.426 375.373 162.683 377.443 162.12C378.109 161.924 378.554 161.967 379.406 162.478C382.404 163.641 384.995 164.337 387.586 165.032C388.414 165.26 389.241 165.487 390.38 166.183C391.333 166.752 391.974 166.853 392.616 166.953C397.212 169.053 401.808 171.152 406.609 173.528Z" fill="#16B5F6"/>
<path d="M215.398 305.497C218.525 306.556 221.471 308.414 224.683 309.418C227.188 310.201 230.185 310.594 232.686 309.997C241.572 307.876 248.862 302.829 255.545 296.702C257.112 295.266 259.638 294.877 262.104 294.004C264.364 309.539 269.568 323.508 281.622 334.625C274.162 339.332 266.582 343.504 257.456 344.228C253.833 344.516 250.391 346.796 246.813 348.012C242.169 349.59 237.714 349.079 233.386 346.678C232.795 346.351 231.548 347.209 230.461 347.864C221.519 335.464 217.306 321.093 215.398 305.497Z" fill="#17A2EB"/>
<path d="M366.883 210.202C368.188 207.212 375.374 203.695 378.246 204.439C384.389 206.031 389.424 203.911 394.657 200.745C398.125 198.647 402.523 197.658 406.627 197.14C413.422 196.283 420.323 196.306 427.16 195.731C428.906 195.584 430.58 194.585 432.692 193.898C438.64 200.612 444.242 207.357 449.696 214.22C451.917 217.015 451.252 219.736 448.129 221.243C437.527 226.36 426.896 231.432 416.13 236.188C411.444 238.258 407.42 235.998 403.931 232.751C393.215 222.777 381.1 215.096 366.883 210.202Z" fill="#17A4EC"/>
</svg>
